<svg width="22" height="21" viewBox="0 0 22 21" fill="none" xmlns="http://www.w3.org/2000/svg">
<path d="M6.28805 17.9L4.25802 19.934C4.1804 20.0324 4.07901 20.1094 3.96334 20.1577C3.84768 20.206 3.72163 20.224 3.59707 20.21C3.49313 20.1346 3.40953 20.0345 3.35385 19.9188C3.29816 19.8031 3.27212 19.6753 3.27804 19.547C3.28904 19.012 3.27804 18.478 3.27804 17.919L2.97805 17.9C2.58722 17.9007 2.19683 17.873 1.81002 17.817C1.2974 17.7029 0.839325 17.4167 0.511866 17.0061C0.184407 16.5955 0.00729542 16.0852 0.0100352 15.56C0.0100352 13.718 0.0350254 11.875 2.54313e-05 10.033C-0.0029004 9.39703 0.246739 8.78586 0.694117 8.3338C1.1415 7.88173 1.75007 7.62572 2.38607 7.62202C2.58607 7.62202 2.77503 7.62202 3.00003 7.62202V7.33402C3.00003 5.90669 3.00003 4.47969 3.00003 3.05302C2.99286 2.65054 3.0668 2.25075 3.21737 1.87744C3.36795 1.50412 3.59209 1.16492 3.87649 0.880046C4.1609 0.595174 4.49976 0.370467 4.87283 0.219279C5.2459 0.0680908 5.64557 -0.00647893 6.04806 2.54501e-05C10.1934 2.54501e-05 14.3387 2.54501e-05 18.484 2.54501e-05C19.255 -0.00148497 19.9963 0.296756 20.5515 0.831736C21.1066 1.36672 21.4321 2.09654 21.4591 2.86703C21.4941 4.41303 21.472 5.96103 21.471 7.50903C21.471 8.63303 21.48 9.75902 21.455 10.883C21.4004 11.565 21.1134 12.2075 20.642 12.7033C20.1706 13.1991 19.5434 13.5181 18.8651 13.607C18.3651 13.647 17.8551 13.636 17.3501 13.648C17.2501 13.648 17.1501 13.648 17.0221 13.648V13.931C17.0221 14.679 17.0221 15.4267 17.0221 16.174C17.0221 16.374 17.067 16.616 16.822 16.703C16.7033 16.7432 16.5754 16.7478 16.4541 16.7164C16.3328 16.6849 16.2233 16.6188 16.1391 16.526C15.4331 15.834 14.739 15.126 14.039 14.426C13.987 14.376 13.9321 14.326 13.8391 14.243C13.8391 14.693 13.8391 15.096 13.8391 15.5C13.8443 16.0482 13.6591 16.5813 13.3152 17.0082C12.9712 17.4351 12.4898 17.7295 11.953 17.841C11.7528 17.8797 11.549 17.8971 11.3451 17.893C9.75972 17.8977 8.17404 17.8977 6.58804 17.893L6.28805 17.9ZM16.14 15.06C16.14 14.404 16.14 13.818 16.14 13.23C16.14 12.83 16.3161 12.652 16.7201 12.648C17.2331 12.648 17.747 12.648 18.26 12.648C18.4858 12.6586 18.7122 12.6482 18.9361 12.617C19.4046 12.5326 19.8277 12.2838 20.1292 11.9154C20.4308 11.5469 20.5909 11.083 20.581 10.607C20.581 8.09302 20.5661 5.57803 20.5901 3.06503C20.5928 2.78781 20.5399 2.51285 20.4345 2.25643C20.3291 2.00002 20.1733 1.76736 19.9763 1.57221C19.7794 1.37707 19.5453 1.2234 19.288 1.12031C19.0306 1.01722 18.7552 0.966796 18.4781 0.972026C14.3447 0.975359 10.2147 0.977356 6.08804 0.978022C5.89242 0.978162 5.69757 1.00268 5.50802 1.05102C5.05757 1.16529 4.65991 1.4305 4.38131 1.80245C4.10271 2.1744 3.96006 2.63062 3.97708 3.09503C3.97708 5.19369 3.98302 7.2937 3.99502 9.39503C3.99502 9.83303 3.99506 10.271 4.00106 10.709C4.02313 11.2366 4.24982 11.7349 4.63308 12.0982C5.01634 12.4615 5.526 12.6612 6.05404 12.655C8.44704 12.635 10.841 12.649 13.234 12.648C13.3914 12.6417 13.5482 12.6692 13.694 12.7288C13.8398 12.7883 13.9711 12.8784 14.0791 12.993C14.7401 13.671 15.418 14.337 16.14 15.061V15.06ZM12.958 13.654H12.6361C10.5294 13.654 8.42304 13.654 6.31704 13.654C6.06878 13.6531 5.82077 13.6388 5.57406 13.611C4.8796 13.5096 4.24232 13.1688 3.77236 12.6475C3.30241 12.1263 3.02924 11.4573 3.00003 10.756C3.00003 10.129 3.00003 9.50303 3.00003 8.87603C3.00003 8.79603 2.99304 8.71703 2.98904 8.62503C2.76704 8.62503 2.57106 8.62503 2.37606 8.62503C2.19079 8.62391 2.00717 8.65997 1.83608 8.73109C1.665 8.80221 1.50992 8.90693 1.38003 9.03906C1.25014 9.17119 1.14804 9.32804 1.07986 9.50032C1.01167 9.67259 0.978773 9.8568 0.983058 10.042C0.983058 11.8547 0.983058 13.6667 0.983058 15.478C0.960999 15.8031 1.06181 16.1246 1.26553 16.3789C1.46924 16.6331 1.76098 16.8016 2.08303 16.851C2.55303 16.9171 3.0288 16.9321 3.50204 16.896C3.60881 16.8819 3.71737 16.8927 3.8193 16.9274C3.92123 16.9622 4.01379 17.02 4.08975 17.0963C4.1657 17.1726 4.22301 17.2655 4.25723 17.3676C4.29145 17.4697 4.30169 17.5783 4.28707 17.685C4.26307 17.98 4.28707 18.277 4.28707 18.576L5.87704 17.015C5.97704 17.009 6.07004 16.999 6.16604 16.999H8.79403C9.74603 16.999 10.694 17.006 11.648 16.991C11.9645 16.9854 12.2684 16.8662 12.5041 16.655C12.7399 16.4439 12.8917 16.1549 12.932 15.841C12.982 15.295 12.958 14.741 12.966 14.191C12.96 14.019 12.958 13.846 12.958 13.654Z" fill="black"/>
</svg>
