<svg width="18" height="19" viewBox="0 0 18 19" fill="none" xmlns="http://www.w3.org/2000/svg">
<g clip-path="url(#clip0_2_7)">
<path d="M7.37 1.04097C6.09897 1.04078 4.85647 1.4175 3.79956 2.12352C2.74266 2.82955 1.91887 3.83314 1.43238 5.00737C0.945885 6.18161 0.818494 7.47377 1.06641 8.72039C1.31433 9.967 1.92645 11.1121 2.8252 12.0109C3.72395 12.9096 4.86899 13.5216 6.1156 13.7696C7.36222 14.0175 8.65438 13.8901 9.82862 13.4036C11.0029 12.9172 12.0065 12.0934 12.7125 11.0365C13.4186 9.97955 13.7952 8.73699 13.795 7.46596C13.7932 5.76252 13.1157 4.12938 11.9111 2.92486C10.7066 1.72034 9.07345 1.04283 7.37 1.04097ZM7.37 14.741C5.91235 14.741 4.48751 14.3087 3.27552 13.4989C2.06353 12.6891 1.11886 11.538 0.56104 10.1913C0.00322163 8.84464 -0.142767 7.3628 0.141606 5.93316C0.425979 4.50352 1.12798 3.19031 2.1587 2.1596C3.18941 1.12888 4.50262 0.426971 5.93226 0.142598C7.3619 -0.141775 8.84374 0.00415295 10.1904 0.561971C11.5371 1.11979 12.6881 2.06443 13.4979 3.27642C14.3078 4.48841 14.74 5.91331 14.74 7.37096C14.7376 9.32488 13.9604 11.1981 12.5787 12.5797C11.1971 13.9614 9.32391 14.7386 7.37 14.741Z" fill="black"/>
<path d="M12.3647 12.1473L11.677 12.7939L16.5964 18.0252L17.2841 17.3785L12.3647 12.1473Z" fill="black"/>
</g>
<defs>
<clipPath id="clip0_2_7">
<rect width="17.283" height="18.023" fill="white"/>
</clipPath>
</defs>
</svg>
