<svg xmlns="http://www.w3.org/2000/svg" xmlns:xlink="http://www.w3.org/1999/xlink" width="32.488" height="22.741" viewBox="0 0 32.488 22.741">
  <defs>
    <clipPath id="clip-path">
      <rect id="사각형_1162" data-name="사각형 1162" width="32.488" height="22.741" fill="#fff"/>
    </clipPath>
  </defs>
  <g id="그룹_3376" data-name="그룹 3376" clip-path="url(#clip-path)">
    <path id="패스_2937" data-name="패스 2937" d="M31.811,3.553A4.069,4.069,0,0,0,28.937.68C26.4,0,16.244,0,16.244,0S6.086,0,3.551.68A4.069,4.069,0,0,0,.678,3.553,42.318,42.318,0,0,0,0,11.371a42.367,42.367,0,0,0,.678,7.822,4.072,4.072,0,0,0,2.873,2.873c2.534.678,12.693.678,12.693.678s10.159,0,12.693-.678a4.072,4.072,0,0,0,2.873-2.873,42.366,42.366,0,0,0,.678-7.822,42.318,42.318,0,0,0-.678-7.818M13,16.246V6.5l8.439,4.876Z" transform="translate(0 -0.001)" fill="#fff"/>
  </g>
</svg>
