<svg xmlns="http://www.w3.org/2000/svg" width="26.961" height="26.961" viewBox="0 0 26.961 26.961">
  <path id="패스_2936" data-name="패스 2936" d="M13.48,2.4a41.333,41.333,0,0,1,5.392.15A6.947,6.947,0,0,1,21.419,3a5.26,5.26,0,0,1,2.546,2.546,6.947,6.947,0,0,1,.449,2.546c0,1.348.15,1.8.15,5.392a41.333,41.333,0,0,1-.15,5.392,6.947,6.947,0,0,1-.449,2.546,5.26,5.26,0,0,1-2.546,2.546,6.947,6.947,0,0,1-2.546.449c-1.348,0-1.8.15-5.392.15a41.333,41.333,0,0,1-5.392-.15,6.947,6.947,0,0,1-2.546-.449A5.26,5.26,0,0,1,3,21.419a6.947,6.947,0,0,1-.449-2.546c0-1.348-.15-1.8-.15-5.392a41.333,41.333,0,0,1,.15-5.392A6.947,6.947,0,0,1,3,5.542a5.379,5.379,0,0,1,1.048-1.5A2.532,2.532,0,0,1,5.542,3a6.947,6.947,0,0,1,2.546-.449A41.333,41.333,0,0,1,13.48,2.4m0-2.4A44.256,44.256,0,0,0,7.938.15a9.247,9.247,0,0,0-3.3.6,5.864,5.864,0,0,0-2.4,1.5,5.864,5.864,0,0,0-1.5,2.4,6.825,6.825,0,0,0-.6,3.3A44.256,44.256,0,0,0,0,13.48a44.256,44.256,0,0,0,.15,5.542,9.247,9.247,0,0,0,.6,3.3,5.863,5.863,0,0,0,1.5,2.4,5.863,5.863,0,0,0,2.4,1.5,9.247,9.247,0,0,0,3.3.6,44.257,44.257,0,0,0,5.542.15,44.257,44.257,0,0,0,5.542-.15,9.247,9.247,0,0,0,3.3-.6,6.284,6.284,0,0,0,3.894-3.894,9.247,9.247,0,0,0,.6-3.3c0-1.5.15-1.947.15-5.542a44.257,44.257,0,0,0-.15-5.542,9.247,9.247,0,0,0-.6-3.3,5.863,5.863,0,0,0-1.5-2.4,5.863,5.863,0,0,0-2.4-1.5,9.247,9.247,0,0,0-3.3-.6A44.256,44.256,0,0,0,13.48,0m0,6.59a6.779,6.779,0,0,0-6.89,6.89,6.89,6.89,0,1,0,6.89-6.89m0,11.383A4.413,4.413,0,0,1,8.987,13.48,4.413,4.413,0,0,1,13.48,8.987a4.413,4.413,0,0,1,4.493,4.493,4.413,4.413,0,0,1-4.493,4.493M20.67,4.643a1.648,1.648,0,1,0,1.648,1.648A1.662,1.662,0,0,0,20.67,4.643" fill="#fff" fill-rule="evenodd"/>
</svg>
