<svg width="12" height="12" viewBox="0 0 12 12" fill="none" xmlns="http://www.w3.org/2000/svg">
<g clip-path="url(#clip0_3_2)">
<path d="M11.22 9.21C11.19 9.06 11.22 8.94 11.28 8.79C11.73 7.95 11.97 6.99 11.97 5.97C12 2.7 9.3 0 6 0C2.7 0 0 2.7 0 6C0 9.3 2.7 12 6 12C6.99 12 7.95 11.73 8.82 11.31C8.94 11.25 9.09 11.22 9.24 11.25L11.28 11.64C11.49 11.67 11.67 11.49 11.64 11.28L11.22 9.21ZM6.3 8.7H3.9C3.57 8.7 3.3 8.43 3.3 8.1C3.3 7.77 3.57 7.5 3.9 7.5H6.3C6.63 7.5 6.9 7.77 6.9 8.1C6.9 8.43 6.63 8.7 6.3 8.7ZM8.1 6.6H3.9C3.57 6.6 3.3 6.33 3.3 6C3.3 5.67 3.57 5.4 3.9 5.4H8.1C8.43 5.4 8.7 5.67 8.7 6C8.7 6.33 8.43 6.6 8.1 6.6ZM8.1 4.5H3.9C3.57 4.5 3.3 4.23 3.3 3.9C3.3 3.57 3.57 3.3 3.9 3.3H8.1C8.43 3.3 8.7 3.57 8.7 3.9C8.7 4.23 8.43 4.5 8.1 4.5Z" fill="black"/>
</g>
<defs>
<clipPath id="clip0_3_2">
<rect width="12" height="12" fill="white"/>
</clipPath>
</defs>
</svg>
