<?xml version="1.0" encoding="utf-8"?>
<!-- Generator: Adobe Illustrator 26.0.1, SVG Export Plug-In . SVG Version: 6.00 Build 0)  -->
<svg version="1.1" id="Ebene_1" xmlns="http://www.w3.org/2000/svg" xmlns:xlink="http://www.w3.org/1999/xlink" x="0px" y="0px"
	 viewBox="0 0 24 24" width="100%" height="100%" style="enable-background:new 0 0 24 24;" xml:space="preserve">
<style type="text/css">
	.st0{fill:#FFFFFF;}
	.st1{fill:#D80027;}
	.st2{fill:#0052B4;}
</style>
<g transform="translate(.5 .5)">
	<circle class="st0" cx="11.5" cy="11.5" r="12"/>
	<path class="st1" d="M15.7,11.5c0,1-1.9,3.7-4.2,3.7s-4.2-2.6-4.2-3.7c0-2.3,1.9-4.2,4.2-4.2S15.7,9.2,15.7,11.5z"/>
	<path class="st2" d="M15.7,11.5c0,2.3-1.9,4.2-4.2,4.2s-4.2-1.9-4.2-4.2"/>
	<path d="M15.9,15.2l1.1-1.1l0.7,0.7l-1.1,1.1L15.9,15.2z M14.1,17l1.1-1.1l0.7,0.7l-1.1,1.1L14.1,17z M18.1,17.4l1.1-1.1L20,17
		l-1.1,1.1L18.1,17.4z M16.3,19.2l1.1-1.1l0.7,0.7L17,20L16.3,19.2z M17,16.3l1.1-1.1l0.7,0.7L17.8,17L17,16.3z M15.2,18.1l1.1-1.1
		l0.7,0.7l-1.1,1.1L15.2,18.1z M18.1,7.8l-3-3l0.7-0.7l3,3L18.1,7.8z M15.2,7.1L14.1,6l0.7-0.7l1.1,1.1L15.2,7.1z M17,8.9l-1.1-1.1
		l0.7-0.7l1.1,1.1L17,8.9z M17.4,4.9l-1.1-1.1L17,3l1.1,1.1L17.4,4.9z M19.2,6.7l-1.1-1.1l0.7-0.7L20,6L19.2,6.7z M3.8,16.3l3,3
		L6,20l-3-3L3.8,16.3z M6.7,17l1.1,1.1l-0.7,0.7L6,17.8L6.7,17z M4.9,15.2L6,16.3L5.2,17l-1.1-1.1L4.9,15.2z M6,14.1l3,3l-0.7,0.7
		l-3-3L6,14.1z M6.7,3.8l-3,3L3,6l3-3L6.7,3.8z M7.8,4.9l-3,3L4.1,7.1l3-3L7.8,4.9z M8.9,6l-3,3L5.2,8.2l3-3L8.9,6z"/>
</g>
</svg>
