<svg width="4500" height="300" viewBox="0 0 4500 300" fill="none" xmlns="http://www.w3.org/2000/svg">
<g clip-path="url(#clip0_30_2)">
<path d="M502 221C550.1 221 576 195.1 576 147V74C576 25.9 550.1 0 502 0H0V300H68V221H502ZM508 78V143C508 150.8 503.8 155 496 155H68V66H496C503.8 66 508 70.2 508 78ZM736 300C687.9 300 662 274.1 662 226V74C662 25.9 687.9 0 736 0H1153C1201.1 0 1227 25.9 1227 74V226C1227 274.1 1201.1 300 1153 300H736ZM1147 234C1154.8 234 1159 229.8 1159 222V78C1159 70.2 1154.8 66 1147 66H742C734.2 66 730 70.2 730 78V222C730 229.8 734.2 234 742 234H1147ZM1822 198C1861.84 214.757 1889.85 254.1 1890 300H1822C1822 246 1797 221 1743 221H1382V300H1314V0H1816C1864.1 0 1890 25.9 1890 74V124.14C1890 170.2 1866.25 195.9 1822 198ZM1810 155C1817.8 155 1822 150.8 1822 143V78C1822 70.2 1817.8 66 1810 66H1382V155H1810ZM1972 74C1972 25.9 1997.9 0 2046 0H2538V56H2052C2044.2 56 2040 60.2 2040 68V110C2040 117.8 2044.2 122 2052 122H2474C2522.1 122 2548 147.9 2548 196V226C2548 274.1 2522.1 300 2474 300H1982V244H2468C2475.8 244 2480 239.8 2480 232V190C2480 182.2 2475.8 178 2468 178H2046C1997.9 178 1972 152.1 1972 104V74ZM2633 74C2633 25.9 2658.9 0 2707 0H3187V66H2713C2705.2 66 2701 70.2 2701 78V222C2701 229.8 2705.2 234 2713 234H3187V300H2707C2658.9 300 2633 274.1 2633 226V74ZM3817 0V300H3749V183H3342V300H3274V0H3342V117H3749V0H3817ZM3973 56V122H4500V178H3973V244H4500V300H3905V0H4500V56H3973Z" fill="white"/>
</g>
<defs>
<clipPath id="clip0_30_2">
<rect width="4500" height="300" fill="white"/>
</clipPath>
</defs>
</svg>
