<svg width="1524" height="254" viewBox="0 0 1524 254" fill="none" xmlns="http://www.w3.org/2000/svg">
<path d="M1 86L178.5 1L240.5 3L234.5 67L143.5 252L18 220L1 86Z" fill="#366DB8"/>
<path d="M1 86L178.5 1L240.5 3M1 86L137 102.5L140.5 98H147M1 86C1 86 11.3611 167.67 18 220L143.5 252M1 86L147 104.5M240.5 3L147 98M240.5 3L234.5 67L143.5 252M240.5 3L147 104.5M147 98V104.5M143.5 252L147 104.5" stroke="#689EE8"/>
<path d="M254 86L431.5 1L493.5 3L487.5 67L396.5 252L271 220L254 86Z" fill="#366DB8"/>
<path d="M254 86L431.5 1L493.5 3M254 86L390 102.5L393.5 98H400M254 86C254 86 264.361 167.67 271 220L396.5 252M254 86L400 104.5M493.5 3L400 98M493.5 3L487.5 67L396.5 252M493.5 3L400 104.5M400 98V104.5M396.5 252L400 104.5" stroke="#689EE8"/>
<path d="M505 86L682.5 1L744.5 3L738.5 67L647.5 252L522 220L505 86Z" fill="#366DB8"/>
<path d="M505 86L682.5 1L744.5 3M505 86L641 102.5L644.5 98H651M505 86C505 86 515.361 167.67 522 220L647.5 252M505 86L651 104.5M744.5 3L651 98M744.5 3L738.5 67L647.5 252M744.5 3L651 104.5M651 98V104.5M647.5 252L651 104.5" stroke="#689EE8"/>
<path d="M767 86L944.5 1L1006.5 3L1000.5 67L909.5 252L784 220L767 86Z" fill="#366DB8"/>
<path d="M767 86L944.5 1L1006.5 3M767 86L903 102.5L906.5 98H913M767 86C767 86 777.361 167.67 784 220L909.5 252M767 86L913 104.5M1006.5 3L913 98M1006.5 3L1000.5 67L909.5 252M1006.5 3L913 104.5M913 98V104.5M909.5 252L913 104.5" stroke="#689EE8"/>
<path d="M1025 86L1202.5 1L1264.5 3L1258.5 67L1167.5 252L1042 220L1025 86Z" fill="#366DB8"/>
<path d="M1025 86L1202.5 1L1264.5 3M1025 86L1161 102.5L1164.5 98H1171M1025 86C1025 86 1035.36 167.67 1042 220L1167.5 252M1025 86L1171 104.5M1264.5 3L1171 98M1264.5 3L1258.5 67L1167.5 252M1264.5 3L1171 104.5M1171 98V104.5M1167.5 252L1171 104.5" stroke="#689EE8"/>
<path d="M1283 86L1460.5 1L1522.5 3L1516.5 67L1425.5 252L1300 220L1283 86Z" fill="#366DB8"/>
<path d="M1283 86L1460.5 1L1522.5 3M1283 86L1419 102.5L1422.5 98H1429M1283 86C1283 86 1293.36 167.67 1300 220L1425.5 252M1283 86L1429 104.5M1522.5 3L1429 98M1522.5 3L1516.5 67L1425.5 252M1522.5 3L1429 104.5M1429 98V104.5M1425.5 252L1429 104.5" stroke="#689EE8"/>
<path d="M155 96C155 98.3914 153 189.663 152 235" stroke="#0A0A0A"/>
<path d="M408 96C408 98.3914 406 189.663 405 235" stroke="#0A0A0A"/>
<path d="M659 96C659 98.3914 657 189.663 656 235" stroke="#0A0A0A"/>
<path d="M921 96C921 98.3914 919 189.663 918 235" stroke="#0A0A0A"/>
<path d="M1179 96C1179 98.3914 1177 189.663 1176 235" stroke="#0A0A0A"/>
<path d="M1437 96C1437 98.3914 1435 189.663 1434 235" stroke="#0A0A0A"/>
<path d="M164 86C164 88.2194 162 172.925 161 215" stroke="#0A0A0A"/>
<path d="M417 86C417 88.2194 415 172.925 414 215" stroke="#0A0A0A"/>
<path d="M668 86C668 88.2194 666 172.925 665 215" stroke="#0A0A0A"/>
<path d="M930 86C930 88.2194 928 172.925 927 215" stroke="#0A0A0A"/>
<path d="M1188 86C1188 88.2194 1186 172.925 1185 215" stroke="#0A0A0A"/>
<path d="M1446 86C1446 88.2194 1444 172.925 1443 215" stroke="#0A0A0A"/>
<path d="M172 78C172 80.0989 170 160.208 169 200" stroke="#0A0A0A"/>
<path d="M425 78C425 80.0989 423 160.208 422 200" stroke="#0A0A0A"/>
<path d="M676 78C676 80.0989 674 160.208 673 200" stroke="#0A0A0A"/>
<path d="M938 78C938 80.0989 936 160.208 935 200" stroke="#0A0A0A"/>
<path d="M1196 78C1196 80.0989 1194 160.208 1193 200" stroke="#0A0A0A"/>
<path d="M1454 78C1454 80.0989 1452 160.208 1451 200" stroke="#0A0A0A"/>
<path d="M179 70C179 71.9785 177 147.491 176 185" stroke="#0A0A0A"/>
<path d="M432 70C432 71.9785 430 147.491 429 185" stroke="#0A0A0A"/>
<path d="M683 70C683 71.9785 681 147.491 680 185" stroke="#0A0A0A"/>
<path d="M945 70C945 71.9785 943 147.491 942 185" stroke="#0A0A0A"/>
<path d="M1203 70C1203 71.9785 1201 147.491 1200 185" stroke="#0A0A0A"/>
<path d="M1461 70C1461 71.9785 1459 147.491 1458 185" stroke="#0A0A0A"/>
<path d="M187 61C187 62.8581 185 133.774 184 169" stroke="#0A0A0A"/>
<path d="M440 61C440 62.8581 438 133.774 437 169" stroke="#0A0A0A"/>
<path d="M691 61C691 62.8581 689 133.774 688 169" stroke="#0A0A0A"/>
<path d="M953 61C953 62.8581 951 133.774 950 169" stroke="#0A0A0A"/>
<path d="M1211 61C1211 62.8581 1209 133.774 1208 169" stroke="#0A0A0A"/>
<path d="M1469 61C1469 62.8581 1467 133.774 1466 169" stroke="#0A0A0A"/>
<path d="M194 54C194 55.7032 192 120.71 191 153" stroke="#0A0A0A"/>
<path d="M447 54C447 55.7032 445 120.71 444 153" stroke="#0A0A0A"/>
<path d="M698 54C698 55.7032 696 120.71 695 153" stroke="#0A0A0A"/>
<path d="M960 54C960 55.7032 958 120.71 957 153" stroke="#0A0A0A"/>
<path d="M1218 54C1218 55.7032 1216 120.71 1215 153" stroke="#0A0A0A"/>
<path d="M1476 54C1476 55.7032 1474 120.71 1473 153" stroke="#0A0A0A"/>
<path d="M201 47C201 48.6172 199 110.34 198 141" stroke="#0A0A0A"/>
<path d="M454 47C454 48.6172 452 110.34 451 141" stroke="#0A0A0A"/>
<path d="M705 47C705 48.6172 703 110.34 702 141" stroke="#0A0A0A"/>
<path d="M967 47C967 48.6172 965 110.34 964 141" stroke="#0A0A0A"/>
<path d="M1225 47C1225 48.6172 1223 110.34 1222 141" stroke="#0A0A0A"/>
<path d="M1483 47C1483 48.6172 1481 110.34 1480 141" stroke="#0A0A0A"/>
<path d="M208 39C208 40.4796 206 96.9498 205 125" stroke="#0A0A0A"/>
<path d="M461 39C461 40.4796 459 96.9498 458 125" stroke="#0A0A0A"/>
<path d="M712 39C712 40.4796 710 96.9498 709 125" stroke="#0A0A0A"/>
<path d="M974 39C974 40.4796 972 96.9498 971 125" stroke="#0A0A0A"/>
<path d="M1232 39C1232 40.4796 1230 96.9498 1229 125" stroke="#0A0A0A"/>
<path d="M1490 39C1490 40.4796 1488 96.9498 1487 125" stroke="#0A0A0A"/>
<path d="M215 32C215 33.3763 213 85.9068 212 112" stroke="#0A0A0A"/>
<path d="M468 32C468 33.3763 466 85.9068 465 112" stroke="#0A0A0A"/>
<path d="M719 32C719 33.3763 717 85.9068 716 112" stroke="#0A0A0A"/>
<path d="M981 32C981 33.3763 979 85.9068 978 112" stroke="#0A0A0A"/>
<path d="M1239 32C1239 33.3763 1237 85.9068 1236 112" stroke="#0A0A0A"/>
<path d="M1497 32C1497 33.3763 1495 85.9068 1494 112" stroke="#0A0A0A"/>
<path d="M222 24C222 25.2731 220 73.8638 219 98" stroke="#0A0A0A"/>
<path d="M475 24C475 25.2731 473 73.8638 472 98" stroke="#0A0A0A"/>
<path d="M726 24C726 25.2731 724 73.8638 723 98" stroke="#0A0A0A"/>
<path d="M988 24C988 25.2731 986 73.8638 985 98" stroke="#0A0A0A"/>
<path d="M1246 24C1246 25.2731 1244 73.8638 1243 98" stroke="#0A0A0A"/>
<path d="M1504 24C1504 25.2731 1502 73.8638 1501 98" stroke="#0A0A0A"/>
<path d="M229 16C229 17.1699 227 61.8208 226 84" stroke="#0A0A0A"/>
<path d="M482 16C482 17.1699 480 61.8208 479 84" stroke="#0A0A0A"/>
<path d="M733 16C733 17.1699 731 61.8208 730 84" stroke="#0A0A0A"/>
<path d="M995 16C995 17.1699 993 61.8208 992 84" stroke="#0A0A0A"/>
<path d="M1253 16C1253 17.1699 1251 61.8208 1250 84" stroke="#0A0A0A"/>
<path d="M1511 16C1511 17.1699 1509 61.8208 1508 84" stroke="#0A0A0A"/>
<path d="M235 10C235 11.0495 233 51.1039 232 71" stroke="#0A0A0A"/>
<path d="M488 10C488 11.0495 486 51.1039 485 71" stroke="#0A0A0A"/>
<path d="M739 10C739 11.0495 737 51.1039 736 71" stroke="#0A0A0A"/>
<path d="M1001 10C1001 11.0495 999 51.1039 998 71" stroke="#0A0A0A"/>
<path d="M1259 10C1259 11.0495 1257 51.1039 1256 71" stroke="#0A0A0A"/>
<path d="M1517 10C1517 11.0495 1515 51.1039 1514 71" stroke="#0A0A0A"/>
<path d="M19 79L151 94" stroke="#0A0A0A"/>
<path d="M272 79L404 94" stroke="#0A0A0A"/>
<path d="M523 79L655 94" stroke="#0A0A0A"/>
<path d="M785 79L917 94" stroke="#0A0A0A"/>
<path d="M1043 79L1175 94" stroke="#0A0A0A"/>
<path d="M1301 79L1433 94" stroke="#0A0A0A"/>
<path d="M36 70L159 86" stroke="#0A0A0A"/>
<path d="M289 70L412 86" stroke="#0A0A0A"/>
<path d="M540 70L663 86" stroke="#0A0A0A"/>
<path d="M802 70L925 86" stroke="#0A0A0A"/>
<path d="M1060 70L1183 86" stroke="#0A0A0A"/>
<path d="M1318 70L1441 86" stroke="#0A0A0A"/>
<path d="M52 62L166 78" stroke="#0A0A0A"/>
<path d="M305 62L419 78" stroke="#0A0A0A"/>
<path d="M556 62L670 78" stroke="#0A0A0A"/>
<path d="M818 62L932 78" stroke="#0A0A0A"/>
<path d="M1076 62L1190 78" stroke="#0A0A0A"/>
<path d="M1334 62L1448 78" stroke="#0A0A0A"/>
<path d="M66 55L173 71" stroke="#0A0A0A"/>
<path d="M319 55L426 71" stroke="#0A0A0A"/>
<path d="M570 55L677 71" stroke="#0A0A0A"/>
<path d="M832 55L939 71" stroke="#0A0A0A"/>
<path d="M1090 55L1197 71" stroke="#0A0A0A"/>
<path d="M1348 55L1455 71" stroke="#0A0A0A"/>
<path d="M80 48L182 62" stroke="#0A0A0A"/>
<path d="M333 48L435 62" stroke="#0A0A0A"/>
<path d="M584 48L686 62" stroke="#0A0A0A"/>
<path d="M846 48L948 62" stroke="#0A0A0A"/>
<path d="M1104 48L1206 62" stroke="#0A0A0A"/>
<path d="M1362 48L1464 62" stroke="#0A0A0A"/>
<path d="M96 40L191 53" stroke="#0A0A0A"/>
<path d="M349 40L444 53" stroke="#0A0A0A"/>
<path d="M600 40L695 53" stroke="#0A0A0A"/>
<path d="M862 40L957 53" stroke="#0A0A0A"/>
<path d="M1120 40L1215 53" stroke="#0A0A0A"/>
<path d="M1378 40L1473 53" stroke="#0A0A0A"/>
<path d="M114 32L201 43" stroke="#0A0A0A"/>
<path d="M367 32L454 43" stroke="#0A0A0A"/>
<path d="M618 32L705 43" stroke="#0A0A0A"/>
<path d="M880 32L967 43" stroke="#0A0A0A"/>
<path d="M1138 32L1225 43" stroke="#0A0A0A"/>
<path d="M1396 32L1483 43" stroke="#0A0A0A"/>
<path d="M126.5 26.5L208 36" stroke="#0A0A0A"/>
<path d="M379.5 26.5L461 36" stroke="#0A0A0A"/>
<path d="M630.5 26.5L712 36" stroke="#0A0A0A"/>
<path d="M892.5 26.5L974 36" stroke="#0A0A0A"/>
<path d="M1150.5 26.5L1232 36" stroke="#0A0A0A"/>
<path d="M1408.5 26.5L1490 36" stroke="#0A0A0A"/>
<path d="M136 20L215 29" stroke="#0A0A0A"/>
<path d="M389 20L468 29" stroke="#0A0A0A"/>
<path d="M640 20L719 29" stroke="#0A0A0A"/>
<path d="M902 20L981 29" stroke="#0A0A0A"/>
<path d="M1160 20L1239 29" stroke="#0A0A0A"/>
<path d="M1418 20L1497 29" stroke="#0A0A0A"/>
<path d="M152 14L223 21" stroke="#0A0A0A"/>
<path d="M405 14L476 21" stroke="#0A0A0A"/>
<path d="M656 14L727 21" stroke="#0A0A0A"/>
<path d="M918 14L989 21" stroke="#0A0A0A"/>
<path d="M1176 14L1247 21" stroke="#0A0A0A"/>
<path d="M1434 14L1505 21" stroke="#0A0A0A"/>
<path d="M161 10L227 16" stroke="#0A0A0A"/>
<path d="M414 10L480 16" stroke="#0A0A0A"/>
<path d="M665 10L731 16" stroke="#0A0A0A"/>
<path d="M927 10L993 16" stroke="#0A0A0A"/>
<path d="M1185 10L1251 16" stroke="#0A0A0A"/>
<path d="M1443 10L1509 16" stroke="#0A0A0A"/>
<path d="M170 5L233 10" stroke="#0A0A0A"/>
<path d="M423 5L486 10" stroke="#0A0A0A"/>
<path d="M674 5L737 10" stroke="#0A0A0A"/>
<path d="M936 5L999 10" stroke="#0A0A0A"/>
<path d="M1194 5L1257 10" stroke="#0A0A0A"/>
<path d="M1452 5L1515 10" stroke="#0A0A0A"/>
<path d="M19 89L33 224" stroke="#0A0A0A"/>
<path d="M272 89L286 224" stroke="#0A0A0A"/>
<path d="M523 89L537 224" stroke="#0A0A0A"/>
<path d="M785 89L799 224" stroke="#0A0A0A"/>
<path d="M1043 89L1057 224" stroke="#0A0A0A"/>
<path d="M1301 89L1315 224" stroke="#0A0A0A"/>
<path d="M39 91L50 228" stroke="#0A0A0A"/>
<path d="M292 91L303 228" stroke="#0A0A0A"/>
<path d="M543 91L554 228" stroke="#0A0A0A"/>
<path d="M805 91L816 228" stroke="#0A0A0A"/>
<path d="M1063 91L1074 228" stroke="#0A0A0A"/>
<path d="M1321 91L1332 228" stroke="#0A0A0A"/>
<path d="M58 94L68 233" stroke="#0A0A0A"/>
<path d="M311 94L321 233" stroke="#0A0A0A"/>
<path d="M562 94L572 233" stroke="#0A0A0A"/>
<path d="M824 94L834 233" stroke="#0A0A0A"/>
<path d="M1082 94L1092 233" stroke="#0A0A0A"/>
<path d="M1340 94L1350 233" stroke="#0A0A0A"/>
<path d="M93 98L100 241" stroke="#0A0A0A"/>
<path d="M346 98L353 241" stroke="#0A0A0A"/>
<path d="M597 98L604 241" stroke="#0A0A0A"/>
<path d="M859 98L866 241" stroke="#0A0A0A"/>
<path d="M1117 98L1124 241" stroke="#0A0A0A"/>
<path d="M1375 98L1382 241" stroke="#0A0A0A"/>
<path d="M76 96L85 237" stroke="#0A0A0A"/>
<path d="M329 96L338 237" stroke="#0A0A0A"/>
<path d="M580 96L589 237" stroke="#0A0A0A"/>
<path d="M842 96L851 237" stroke="#0A0A0A"/>
<path d="M1100 96L1109 237" stroke="#0A0A0A"/>
<path d="M1358 96L1367 237" stroke="#0A0A0A"/>
<path d="M129 103L131 249" stroke="#0A0A0A"/>
<path d="M382 103L384 249" stroke="#0A0A0A"/>
<path d="M633 103L635 249" stroke="#0A0A0A"/>
<path d="M895 103L897 249" stroke="#0A0A0A"/>
<path d="M1153 103L1155 249" stroke="#0A0A0A"/>
<path d="M1411 103L1413 249" stroke="#0A0A0A"/>
<path d="M112 100L117 245" stroke="#0A0A0A"/>
<path d="M365 100L370 245" stroke="#0A0A0A"/>
<path d="M616 100L621 245" stroke="#0A0A0A"/>
<path d="M878 100L883 245" stroke="#0A0A0A"/>
<path d="M1136 100L1141 245" stroke="#0A0A0A"/>
<path d="M1394 100L1399 245" stroke="#0A0A0A"/>
<path d="M35.8748 197.434L36.922 137.443L48.852 137.651L48.724 144.979L49.2637 144.989C49.8144 143.824 50.6022 142.644 51.627 141.45C52.671 140.237 54.0144 139.237 55.6572 138.452C57.3192 137.647 59.3716 137.266 61.8144 137.309C64.9958 137.364 67.9164 138.249 70.5763 139.962C73.2365 141.657 75.3423 144.184 76.8938 147.545C78.4455 150.887 79.1778 155.058 79.0905 160.057C79.0056 164.924 78.148 169.019 76.5177 172.344C74.9068 175.649 72.7418 178.14 70.0227 179.817C67.3229 181.474 64.3161 182.274 61.0022 182.216C58.654 182.175 56.663 181.752 55.0291 180.947C53.4141 180.142 52.0961 179.144 51.0751 177.952C50.0544 176.74 49.2801 175.524 48.7521 174.302L48.3828 174.296L47.9752 197.645L35.8748 197.434ZM48.386 159.464C48.3407 162.059 48.661 164.328 49.3468 166.272C50.0327 168.216 51.0479 169.74 52.3925 170.843C53.7375 171.927 55.3851 172.486 57.3356 172.52C59.305 172.555 60.9808 172.044 62.3631 170.988C63.7457 169.914 64.8042 168.417 65.5386 166.498C66.2922 164.56 66.6911 162.322 66.7354 159.785C66.7794 157.266 66.4677 155.044 65.8005 153.12C65.1332 151.195 64.1273 149.681 62.7827 148.578C61.4381 147.474 59.7716 146.905 57.7833 146.871C55.8139 146.836 54.1384 147.328 52.7568 148.346C51.3941 149.364 50.3363 150.823 49.5833 152.723C48.8304 154.623 48.4312 156.87 48.386 159.464ZM123.623 151.401L112.534 151.889C112.361 150.939 111.969 150.08 111.357 149.312C110.745 148.524 109.932 147.895 108.918 147.422C107.922 146.931 106.724 146.674 105.323 146.649C103.448 146.616 101.86 146.987 100.558 147.759C99.2572 148.513 98.5952 149.544 98.5724 150.85C98.5542 151.892 98.9554 152.78 99.7761 153.514C100.597 154.248 102.016 154.85 104.035 155.321L111.904 157.05C116.13 157.995 119.268 159.451 121.317 161.419C123.367 163.387 124.364 165.943 124.309 169.086C124.259 171.946 123.373 174.44 121.65 176.569C119.946 178.699 117.625 180.344 114.688 181.505C111.769 182.648 108.417 183.186 104.629 183.12C98.8538 183.019 94.2732 181.736 90.8877 179.272C87.5214 176.788 85.5811 173.458 85.0668 169.282L96.9793 168.865C97.3084 170.632 98.156 171.992 99.5221 172.944C100.889 173.877 102.651 174.362 104.81 174.4C106.931 174.437 108.642 174.06 109.944 173.268C111.265 172.458 111.947 171.399 111.989 170.093C111.989 168.994 111.541 168.087 110.644 167.37C109.747 166.635 108.356 166.061 106.469 165.649L98.9393 164.012C94.6935 163.086 91.5474 161.553 89.501 159.415C87.4737 157.277 86.4884 154.579 86.5452 151.322C86.5942 148.52 87.3938 146.118 88.944 144.119C90.5133 142.119 92.6898 140.594 95.4737 139.544C98.2766 138.495 101.543 138.002 105.274 138.068C110.784 138.164 115.1 139.404 118.222 141.788C121.363 144.173 123.163 147.377 123.623 151.401Z" fill="white"/>
<path d="M300.415 181.251L287.235 181.021L308.332 123.199L324.182 123.476L343.22 181.999L330.041 181.769L316.252 136.635L315.798 136.627L300.415 181.251ZM299.99 158.371L331.122 158.915L330.954 168.515L299.822 167.972L299.99 158.371ZM363.537 124.163L362.522 182.335L350.222 182.121L351.238 123.948L363.537 124.163Z" fill="white"/>
<path d="M552.614 194.933C552.652 192.785 553.426 190.943 554.937 189.407C556.45 187.831 558.26 187.062 560.369 187.099C562.478 187.136 564.262 187.929 565.719 189.478C567.177 190.988 567.888 192.817 567.85 194.965C567.813 197.113 567.039 198.936 565.528 200.433C564.097 201.815 562.405 202.527 560.451 202.571C561.242 206.453 563.138 209.748 566.138 212.457C569.985 215.923 574.876 217.708 580.813 217.812C585.929 217.901 590.299 215.985 593.923 212.063C596.472 209.256 597.81 204.259 597.935 197.072L597.955 195.959C598.056 190.179 597.599 186.108 596.586 183.746C594.446 178.747 590.865 175.715 585.844 174.651C584.443 174.353 583.039 174.192 581.633 174.167C579.446 174.129 577.273 174.423 575.113 175.05C572.449 175.472 569.993 177.422 567.744 180.898L566.661 182.52C564.107 176.616 560.16 173.343 554.819 172.703L554.176 172.574C560.373 166.744 563.528 160.587 563.641 154.104C563.754 147.621 560.826 140.791 554.856 133.616L610.161 134.581C606.586 140.183 601.636 143.945 595.313 145.866C592.642 146.679 589.979 147.063 587.323 147.016C587.167 147.014 587.01 147.011 586.854 147.008C585.448 146.984 584.006 146.802 582.527 146.464C576.262 145.026 571.342 142.635 567.767 139.291C567.574 150.383 567.38 161.456 567.187 172.509L568.607 171.772C572.555 169.379 577.185 168.229 582.497 168.322C584.138 168.351 585.815 168.497 587.529 168.761C594.387 169.819 600.003 172.593 604.379 177.084C608.793 181.615 611.086 187.886 611.259 195.898L611.275 198.301C611.136 206.269 608.056 212.603 602.036 217.303C596.016 221.965 589.022 224.226 581.055 224.087C573.087 223.948 566.321 221.016 560.756 215.293C555.193 209.453 552.479 202.667 552.614 194.933Z" fill="white"/>
<path d="M862.654 159.06C870.549 161.331 876.432 164.268 880.303 167.869C884.176 171.404 886.063 175.971 885.965 181.57C885.887 186.036 884.418 190.011 881.556 193.495C878.695 196.979 874.514 199.673 869.013 201.577C863.579 203.483 856.996 204.368 849.264 204.233C840.132 204.074 832.087 202.766 825.129 200.311C818.238 197.791 812.856 194.796 808.983 191.328L812.361 186.886C815.78 189.68 820.105 192.089 825.337 194.114C830.569 196.139 836.218 197.204 842.284 197.31C846.216 197.379 849.193 196.864 851.212 195.766C853.298 194.669 854.359 193.087 854.395 191.021C854.458 187.421 850.941 184.559 843.844 182.435L830.912 178.409C823.883 176.152 818.469 173.091 814.67 169.224C810.937 165.358 809.115 160.826 809.206 155.627C809.282 151.294 810.717 147.385 813.511 143.9C816.306 140.415 820.32 137.718 825.555 135.809C830.856 133.834 837.174 132.911 844.506 133.039C851.505 133.161 857.923 134.073 863.761 135.776C869.665 137.479 874.464 139.496 878.157 141.828L874.778 146.369C871.676 144.515 867.937 142.916 863.56 141.573C859.249 140.231 854.694 139.518 849.895 139.434C845.696 139.361 842.451 139.971 840.162 141.265C837.94 142.493 836.809 144.24 836.77 146.506C836.739 148.239 837.546 149.787 839.189 151.149C840.833 152.445 843.977 153.766 848.621 155.114L862.654 159.06Z" fill="white"/>
<path d="M1071.21 200.894C1064.81 200.783 1059.7 200.213 1055.88 199.186C1052.06 198.106 1049.21 196.323 1047.33 193.836C1045.46 191.297 1044.56 187.76 1044.64 183.228L1044.71 178.828L1049.43 178.911L1049.36 183.31C1049.23 190.562 1052.26 194.242 1058.45 194.35C1061.22 194.399 1063.45 193.584 1065.13 191.907C1066.87 190.177 1067.77 187.419 1067.83 183.633L1068.52 144.439L1099.07 144.972L1098.39 184.166C1098.29 189.978 1096.13 194.262 1091.92 197.015C1087.77 199.77 1080.87 201.063 1071.21 200.894ZM1145.4 165.864C1151.71 167.681 1156.42 170.03 1159.52 172.911C1162.62 175.739 1164.13 179.393 1164.05 183.872C1163.99 187.445 1162.81 190.625 1160.52 193.412C1158.23 196.199 1154.89 198.354 1150.49 199.878C1146.14 201.402 1140.87 202.11 1134.69 202.002C1127.38 201.875 1120.95 200.829 1115.38 198.865C1109.87 196.848 1105.56 194.453 1102.46 191.678L1105.16 188.125C1107.9 190.36 1111.36 192.287 1115.55 193.907C1119.73 195.527 1124.25 196.379 1129.1 196.464C1132.25 196.519 1134.63 196.107 1136.25 195.228C1137.91 194.351 1138.76 193.085 1138.79 191.432C1138.84 188.553 1136.03 186.263 1130.35 184.564L1120.01 181.343C1114.38 179.538 1110.05 177.088 1107.01 173.995C1104.02 170.902 1102.57 167.276 1102.64 163.117C1102.7 159.651 1103.85 156.524 1106.08 153.736C1108.32 150.948 1111.53 148.79 1115.72 147.263C1119.96 145.683 1125.01 144.945 1130.88 145.047C1136.48 145.145 1141.61 145.875 1146.28 147.236C1151.01 148.599 1154.85 150.213 1157.8 152.078L1155.1 155.711C1152.62 154.228 1149.63 152.949 1146.12 151.874C1142.67 150.801 1139.03 150.23 1135.19 150.163C1131.83 150.105 1129.24 150.593 1127.4 151.627C1125.63 152.61 1124.72 154.008 1124.69 155.821C1124.67 157.207 1125.31 158.445 1126.63 159.535C1127.94 160.572 1130.46 161.629 1134.17 162.707L1145.4 165.864Z" fill="white"/>
<path d="M545.837 124.009C546.849 123.832 547.624 123.276 548.161 122.341L548.188 122.244L548.446 107.414L548.424 107.316C547.919 106.363 547.164 105.78 546.159 105.567L553.214 105.691C552.119 105.899 551.344 106.452 550.889 107.347L550.863 107.456L550.709 116.256L558.655 116.395L558.809 107.595L558.786 107.497C558.282 106.544 557.527 105.961 556.521 105.748L563.576 105.871C562.481 106.08 561.707 106.632 561.252 107.528L561.225 107.637L560.966 122.467L560.989 122.577C561.412 123.488 562.167 124.067 563.254 124.313L556.199 124.19C557.212 124.013 557.986 123.456 558.524 122.522L558.55 122.424L558.633 117.64L550.688 117.501L550.604 122.286L550.627 122.396C551.05 123.307 551.805 123.886 552.892 124.133L545.837 124.009ZM567.757 124.392C568.77 124.214 569.545 123.658 570.082 122.723L570.108 122.626L570.377 107.235L566.874 107.174L566.703 107.184C566.124 107.23 564.981 108.102 563.275 109.797L565.614 105.907L577.599 106.116L579.801 110.086C578.155 108.332 577.044 107.421 576.467 107.354L576.296 107.339L572.793 107.278L572.525 122.668L572.547 122.779C572.971 123.689 573.726 124.268 574.812 124.515L567.757 124.392ZM578.327 124.577C579.421 124.368 580.196 123.816 580.651 122.92L580.678 122.811L583.54 105.732L589.86 120.663L596.416 105.956L598.668 123.125L598.691 123.235C599.114 124.146 599.869 124.725 600.956 124.972L593.901 124.848C595.465 124.298 596.252 123.762 596.261 123.241C596.261 123.225 596.262 123.205 596.262 123.18L596.251 123.083L594.836 112.522L589.059 125.252L583.671 112.217L582.045 122.835L582.03 122.981C582.038 123.469 582.805 124.036 584.332 124.681L578.327 124.577ZM601.444 124.98C602.456 124.802 603.231 124.246 603.768 123.311L603.794 123.214L604.053 108.385L604.03 108.287C603.526 107.334 602.771 106.751 601.766 106.538L608.82 106.661C607.726 106.87 606.951 107.422 606.496 108.318L606.47 108.427L606.201 123.818L612.328 123.925L612.499 123.916C613.078 123.869 614.22 122.997 615.927 121.302L613.588 125.192L601.444 124.98Z" fill="white"/>
<path d="M1341.91 105.522L1392.06 109.909C1396.58 110.635 1406.26 115.062 1408.85 126.959C1411.44 138.856 1396.63 144.646 1388.9 146.054L1363.82 143.86L1358.77 201.572C1357.23 206.3 1350.75 215.538 1337.13 214.664C1323.52 213.79 1317.8 203.644 1316.64 198.68C1316.35 196.24 1316.46 190.567 1319.26 187.397C1322.75 183.435 1322.69 184.125 1325.99 180.941C1328.64 178.393 1335.11 177.868 1338.02 177.924C1335.5 177.869 1328.99 176.182 1323.12 169.872C1321.46 167.576 1318.59 161.477 1320.42 155.445C1322.25 149.413 1327.5 145.545 1329.89 144.365C1331.39 143.603 1335.27 141.997 1338.74 141.666C1333.44 140.639 1322.88 135.117 1323.07 121.24C1323.25 107.363 1335.71 104.979 1341.91 105.522Z" fill="white"/>
<path d="M1338.74 141.666C1333.44 140.639 1322.88 135.117 1323.07 121.24C1323.25 107.363 1335.71 104.979 1341.91 105.522L1392.06 109.909C1396.58 110.635 1406.26 115.062 1408.85 126.959C1411.44 138.856 1396.63 144.646 1388.9 146.054L1363.82 143.86M1338.74 141.666L1363.82 143.86M1338.74 141.666C1335.27 141.997 1331.39 143.603 1329.89 144.365C1327.5 145.545 1322.25 149.413 1320.42 155.445C1318.59 161.477 1321.46 167.576 1323.12 169.872C1328.99 176.182 1335.5 177.869 1338.02 177.924C1335.11 177.868 1328.64 178.393 1325.99 180.941C1322.69 184.125 1322.75 183.435 1319.26 187.397C1316.46 190.567 1316.35 196.24 1316.64 198.68C1317.8 203.644 1323.52 213.79 1337.13 214.664C1350.75 215.538 1357.23 206.3 1358.77 201.572L1363.82 143.86" stroke="white" stroke-width="2"/>
<path d="M1403.61 165.704C1402.79 175.036 1393.36 182.064 1382.25 181.093C1371.14 180.121 1363.07 171.56 1363.88 162.228C1364.7 152.897 1374.14 145.868 1385.25 146.84C1396.35 147.811 1404.43 156.372 1403.61 165.704Z" fill="white" stroke="white" stroke-width="2"/>
</svg>
